<?xml version="1.0" encoding="UTF-8"?>
<!DOCTYPE svg PUBLIC "-//W3C//DTD SVG 1.1//EN" "http://www.w3.org/Graphics/SVG/1.1/DTD/svg11.dtd">
<!-- Creator: CorelDRAW X7 -->
<svg xmlns="http://www.w3.org/2000/svg" xml:space="preserve" width="127mm" height="127mm" version="1.1" style="shape-rendering:geometricPrecision; text-rendering:geometricPrecision; image-rendering:optimizeQuality; fill-rule:evenodd; clip-rule:evenodd"
viewBox="0 0 12700 12700"
 xmlns:xlink="http://www.w3.org/1999/xlink">
 <defs>
  <style type="text/css">
   <![CDATA[
    .fil0 {fill:url(#id0)}
   ]]>
  </style>
  <linearGradient id="id0" gradientUnits="userSpaceOnUse" x1="3173.25" y1="3805.13" x2="9526.76" y2="8894.87">
   <stop offset="0" style="stop-opacity:1; stop-color:#162E92"/>
   <stop offset="1" style="stop-opacity:1; stop-color:#752C84"/>
  </linearGradient>
 </defs>
 <g id="Layer_x0020_1">
  <metadata id="CorelCorpID_0Corel-Layer"/>
  <path class="fil0" d="M1490 9435c467,0 935,0 1402,0 161,0 308,-5 466,-5l1813 0c49,0 50,10 62,-18 26,-57 51,-198 68,-268 12,-50 24,-102 30,-155 6,-65 48,-281 61,-369l104 -883c22,6 21,33 26,54 2,8 5,22 7,33l76 380c2,14 1,24 3,37 5,20 8,13 8,37 17,-12 14,-52 18,-78 13,-91 12,-227 20,-275 13,-88 17,-687 17,-764l12 -279c6,-42 -10,-73 24,-76 -9,-38 -15,-3 -12,-36 1,-21 6,-30 7,-49 1,-36 2,-68 7,-103 12,-78 24,-216 42,-289 17,-75 24,-158 43,-232 20,-76 34,-152 57,-223 9,-29 16,-59 25,-86l104 -281c8,-25 37,-108 52,-119 0,25 3,37 7,59l33 382c0,25 5,39 8,62 12,82 31,202 66,275l22 48c7,13 15,33 24,46 11,16 17,30 35,35 0,-81 -5,-144 -5,-225l5 -667c0,-19 -7,-76 15,-85l0 -30c-16,-6 -7,-14 -5,-35 2,-16 0,-38 0,-55 0,-41 5,-62 5,-105 0,-26 4,-31 5,-50 7,-81 1,-176 13,-258 6,-33 4,-67 9,-101l45 -446c17,-103 19,-160 44,-286 2,-12 2,-10 4,-22 0,-4 0,-9 1,-13 4,-16 2,-6 4,-12 15,-45 24,-132 61,-159 5,22 57,104 71,139 2,8 5,16 10,25l106 280c2,10 5,21 7,28l21 84c4,21 6,39 10,59 16,78 20,167 20,261l15 0c9,-37 46,-89 55,-171 1,-14 -1,-29 0,-44 10,-121 0,-256 -26,-370 -4,-15 -6,-38 -9,-56 -4,-22 -9,-30 -13,-52 -23,-121 -67,-249 -112,-363l-144 -338 -130 -220c-7,-13 -6,-9 -14,-20l-34 -57c-1,-1 -4,-6 -6,-9 -3,-6 -4,-8 -6,-14l-42 -89c12,6 11,2 30,6l266 159c6,5 9,7 15,11l153 122c6,5 8,6 14,11 1,1 2,2 3,2 43,36 86,74 124,116l80 81c0,1 1,2 2,3l147 178c45,57 87,119 124,182l6 9c0,1 1,2 2,3l63 117c59,133 78,182 125,325l41 160c6,30 13,56 17,83 3,21 5,23 8,42l15 135c32,222 2,564 2,789 0,6 8,23 11,30 6,14 10,16 14,31 25,-3 19,-7 26,-35 4,-14 7,-31 11,-49l21 -104c35,-222 47,-339 47,-574 0,-43 9,-73 10,-115 18,13 3,3 14,17 8,9 8,7 15,19l12 19c44,67 72,145 94,221 6,20 7,36 13,57 24,97 53,255 53,358l5 135c-1,31 4,42 5,65l-7 270c-8,60 -6,126 -15,190l-23 181c-3,39 -13,83 -21,120 -3,17 -5,40 -9,56l-25 116c-3,11 -3,15 -7,28 -3,10 -5,13 -8,26 -23,76 -40,150 -67,224 -4,12 1,-2 -4,11l-102 244c-4,10 -6,14 -11,23 -2,3 -6,10 -6,10 -5,10 -1,2 -6,14l-33 67c0,1 -1,2 -2,3l-48 87c-9,17 -16,29 -26,44l-218 333c-6,10 -7,14 -13,22l-225 326c-12,17 -9,1 -11,24 39,-3 69,-32 98,-53 35,-25 82,-61 113,-92l210 -260c19,-30 46,-58 62,-88 8,-15 12,-22 21,-35l39 -61c29,-54 64,-106 98,-157 8,-11 13,-21 22,-33 8,-12 12,-19 20,-31l21 -29c13,-18 23,-40 39,-56 7,-6 -4,-1 9,-6 0,122 -30,223 -67,334l-19 62c-18,50 -52,145 -78,192l-148 283c0,0 -1,2 -2,3l-127 193c-7,11 -11,20 -19,30l-115 156c-1,1 -2,2 -2,3l-161 185c0,1 -1,2 -2,3l-143 147c-85,79 -226,207 -316,275l-41 30c-1,1 -4,3 -5,4 -26,22 -55,38 -79,62l-58 52c-11,10 -17,20 -31,24l0 15c40,0 73,-4 108,-17 2,0 3,-1 4,-1l104 -42c15,-8 26,-16 40,-25l107 -68c17,-9 3,-6 28,-7 2,-20 0,-8 5,-15 11,-13 30,-22 44,-31l86 -59c1,-1 3,-1 3,-2 5,-3 5,-3 10,-6l41 -24c16,-6 22,-14 41,-18 -5,24 -16,42 -28,61l-185 231 -115 106c-3,3 -6,4 -8,6l-37 29c-9,7 -6,6 -13,12 -31,30 -71,53 -104,81 -1,1 -2,2 -3,2 0,1 -2,2 -2,3l-101 74c-12,8 -13,12 -25,20l-25 20c-31,29 -89,51 -90,101l5018 0c26,0 5,7 35,0 0,-32 -24,-68 -36,-100 -1,-4 -4,-12 -7,-18l-89 -195c-3,-6 -2,-6 -4,-12l-72 -158c-7,-15 -8,-22 -14,-37l-230 -510c-10,-23 -17,-41 -27,-64l-85 -195c-10,-21 -16,-45 -26,-64l-94 -207c-5,-12 -2,-4 -8,-17l-28 -62c-6,-15 -11,-21 -15,-35l-140 -321c-16,-43 -41,-84 -57,-128 -31,-81 -69,-160 -107,-238l-36 -85c-10,-22 -17,-42 -27,-63l-333 -753c-8,-15 4,9 -4,-7l-3 -7c0,-1 -1,-2 -1,-3l-58 -128c-10,-24 -17,-44 -28,-67l-115 -256c-6,-15 -8,-18 -14,-30l-71 -160c-5,-12 -8,-15 -15,-31l-42 -102c-11,-24 -17,-44 -29,-67 -7,-15 -8,-15 -13,-32 -11,-35 -29,-63 -43,-97l-70 -160c-6,-12 -12,-19 -16,-29l-12 -33c-6,-12 -12,-20 -17,-33l-56 -129c-6,-13 -8,-18 -13,-32l-27 -63c-8,-17 -10,-19 -17,-34 -2,-5 -3,-9 -5,-15l-340 -772c-1,-1 -3,-5 -4,-6l-153 -342c-1,-1 -1,-3 -2,-4l-35 -80c-6,-12 -8,-18 -14,-31l-158 -358c-31,-76 -62,-152 -100,-225l-106 -240c-1,-4 -6,-13 -7,-17 -6,-13 -8,-20 -13,-33 -1,-1 -5,-11 -6,-14l-121 -274c-28,-65 -62,-129 -86,-195l-6 -14c-27,-52 -50,-113 -74,-166 -9,-21 -39,-98 -64,-146l-41 -90c-47,-93 -83,-194 -128,-287 -7,-14 -9,-22 -15,-35l-59 -132 -2273 0c-2,21 -17,48 -25,65l-61 129c-4,12 -9,20 -14,31l-284 608c-12,23 -20,41 -31,64 -5,10 -9,20 -14,31l-108 223c0,1 -1,2 -1,3l-10 31c-6,15 -11,17 -17,32l-104 222c-4,7 -5,10 -8,17l-75 156c0,1 -1,2 -1,3 -1,1 -2,3 -2,4l-55 125c-3,7 -4,11 -7,18 -5,10 -11,19 -18,32l-59 126c-37,89 -82,173 -120,261l-6 9c-5,10 -3,6 -9,17l-120 260c-1,1 -1,2 -2,3l-93 202c-4,8 -5,11 -8,17 -11,23 -20,40 -30,65l-15 30c-7,13 -9,22 -15,35l-51 110c-23,48 -42,100 -68,147 -7,13 -8,17 -13,32 -6,13 -9,18 -15,30 -6,11 -9,20 -14,31 -6,12 -10,22 -16,34 -31,74 -130,263 -149,322l-14 31c-7,14 -8,22 -14,36l-72 159c-27,67 -63,127 -90,195 -23,57 -63,123 -82,178 -12,33 -32,63 -45,95 -1,2 -2,6 -3,8l-167 363c-7,17 -12,21 -18,32 -10,20 -16,42 -27,64l-126 275c0,1 -1,2 -1,3l-20 45c-6,14 -11,19 -16,30l-44 96c-1,1 -1,2 -2,3 -4,12 -6,20 -12,33l-28 62c-5,12 -9,25 -14,36l-431 931c-6,14 -9,18 -15,30 -2,5 -5,11 -6,14l-23 52c-10,23 -21,43 -31,64 -4,10 -3,7 -6,14l-83 178c-10,25 -20,41 -30,65l-29 66c-25,42 -95,207 -120,256 -11,22 -18,41 -28,62 -5,9 -9,20 -14,31 -8,14 -10,17 -17,33l-90 190c-7,11 -11,17 -16,30l-48 97c-43,83 -85,181 -128,267l-156 341c-4,10 -5,10 -8,17l-19 50c-15,56 -55,116 -55,186zm1282 1622c0,14 -2,25 15,25 41,0 205,10 245,-10 0,-67 4,-213 13,-268l27 -533c0,-95 0,-190 0,-285 4,5 0,-3 6,9 23,51 42,165 61,225 3,11 5,13 8,27l104 387c4,13 5,12 8,27 12,51 60,242 74,271 65,0 199,8 255,-5 0,-34 4,-35 10,-60 5,-25 11,-35 16,-60l51 -199c3,-12 3,-21 7,-33 17,-69 40,-135 52,-203l2 -13c11,-36 92,-340 93,-373l10 0c0,24 -5,49 -4,63 11,126 6,384 22,485l32 543c38,0 56,5 95,5 53,0 114,7 165,-5 0,-34 -2,-53 -6,-84 -6,-52 -3,-118 -10,-170 -3,-23 -9,-57 -9,-86 0,-59 -12,-111 -15,-170l-20 -256c-6,-83 -7,-176 -19,-261l-26 -345c-57,-13 -268,-5 -341,-5 -9,19 -12,27 -17,53l-199 833c-3,18 -5,46 -19,56 -15,-32 -21,-85 -29,-116l-89 -352c-5,-22 -10,-33 -15,-55l-102 -414c-56,-13 -260,-5 -331,-5 -17,0 -15,13 -15,30 0,20 0,24 -3,43 -4,28 -5,54 -7,82 -5,54 -15,117 -15,171l-44 557c-6,44 -1,87 -7,133l-17 168c-4,27 -2,62 -6,85 -4,32 -6,55 -6,88zm3676 51c42,0 181,-2 217,-14l50 -14c17,-6 10,-4 28,-8 34,-6 54,-18 85,-30 8,-2 18,-6 25,-10 33,-17 110,-41 110,-80l0 -641c0,-11 -3,-15 -15,-15l-480 0c0,50 18,151 30,201l200 0 0 355c-42,11 -41,26 -120,41 -71,13 -44,9 -125,9 -30,0 -72,-10 -98,-22 -9,-4 -11,-6 -17,-9l-50 -34c-1,-1 -2,-2 -3,-3 -29,-29 -49,-56 -66,-94 -79,-179 -80,-486 8,-679 5,-10 10,-17 15,-25 84,-126 190,-172 345,-155 14,2 50,11 65,16 41,14 82,38 117,63l39 26 104 -107c15,-15 16,-28 36,-33 -1,-22 -1,-14 -15,-25 -1,-1 -2,-2 -3,-2 -5,-4 -6,-5 -11,-9l-18 -17c-6,-3 -4,-2 -10,-5l-119 -67c-102,-47 -206,-46 -319,-46 -30,0 -39,8 -70,10 -75,5 -188,67 -249,112 -37,29 -72,63 -100,101 -48,63 -87,134 -109,211 -7,21 -14,43 -18,63 -8,47 -21,89 -20,139 0,44 -6,66 -1,111 2,13 1,27 1,39 0,54 6,96 14,147 23,138 87,259 148,332l41 39c1,1 2,2 3,3l177 98c36,20 140,28 178,28zm4281 -196c-55,0 -125,-31 -163,-72 -8,-10 -32,-35 -32,-48l0 -451c0,-11 1,-7 12,-27l41 -50c4,-4 19,-17 23,-21 53,-44 133,-68 199,-41l68 47c61,76 78,270 65,351 -8,55 6,36 -15,114 -7,27 -7,51 -26,85l-23 37c-18,24 -21,26 -46,44 -26,18 -75,32 -103,32zm481 -477l0 227c0,22 -6,26 -9,46 -4,23 -3,20 -9,41l-22 73c0,1 -1,3 -1,4 -1,1 -1,3 -1,4l-16 39c-3,9 -13,25 -17,33 -7,12 -11,18 -18,32 -5,8 -4,8 -10,16l-9 10c-22,26 -39,49 -66,70l-64 41 -96 29c-60,13 -156,11 -215,-15l-123 -83 0 481c-16,0 -44,5 -62,8 -20,3 -48,6 -64,7 -46,4 -81,10 -129,10l0 -1482c39,-9 186,-9 225,0 0,19 10,104 15,115 15,-5 26,-27 55,-51 0,0 1,-1 2,-2l130 -75c83,-25 154,-25 237,0l54 20c9,5 6,4 13,7l56 40c34,32 61,71 82,113l30 75c1,1 1,2 1,4 1,1 2,6 2,8l14 57c2,14 4,27 7,42 4,16 6,35 8,56zm-9109 -509c1,17 5,22 10,35l20 80c5,15 7,22 10,39l125 477 -335 0c0,-23 4,-28 9,-42l147 -554c5,-21 -1,-24 14,-35zm-586 1151c35,0 49,5 85,5l125 0c31,0 37,-5 66,-5 1,-20 79,-285 80,-310 15,-1 17,-5 35,-5l385 0c18,0 20,4 35,5 1,13 5,24 9,37l71 273c29,0 35,5 66,5l220 -5 -60 -190c-4,-17 -2,-10 -6,-24l-26 -84c-5,-20 -10,-23 -15,-45 -21,-84 -69,-213 -92,-299 -4,-18 -11,-31 -15,-45l-192 -625c-8,-27 -11,-43 -25,-65 -98,0 -197,0 -295,0 -38,0 -33,29 -46,65l-24 81c-6,19 -9,24 -15,40l-108 353c-3,8 -6,16 -8,22l-145 475c-1,1 -1,3 -2,4l-23 72c-4,16 -8,26 -13,42l-41 134c-7,29 -25,58 -26,89zm3701 -200l-541 0c14,-30 5,-337 5,-400 52,12 357,5 436,5 5,-26 4,-188 3,-194 -7,-26 -4,-11 -34,-9 -72,4 -393,10 -405,-3l0 -85c0,-58 7,-261 -5,-285 23,-2 11,-4 37,-3 105,5 352,6 456,1 22,-1 16,-1 20,-26l23 -173 -796 0c0,139 8,1345 -5,1372l84 6c109,1 710,6 722,-6 11,-22 11,-177 0,-200zm3180 35c-122,0 -195,-114 -206,-225 -10,-97 -16,-163 -1,-262 7,-52 22,-108 52,-148 30,-40 48,-57 97,-73 55,-19 147,-13 197,33 2,1 6,5 8,7 18,18 45,53 53,77 15,42 21,68 26,115 8,71 10,200 -4,263 -4,19 -8,37 -14,56 -8,23 -12,35 -23,52 -10,15 -16,28 -28,43 0,0 -1,2 -2,2 -1,1 -2,2 -2,3 -37,41 -98,57 -153,57zm-486 -395c0,92 4,180 30,260l56 124 55 70c41,37 88,82 145,100 120,39 121,37 260,37l102 -18 107 -48c39,-21 94,-68 118,-103 10,-14 16,-21 25,-35l58 -127c19,-62 29,-85 30,-155 2,-76 12,-62 -3,-177 -7,-52 -14,-106 -35,-155l-31 -65c-5,-8 -7,-13 -13,-22 -5,-8 -8,-10 -13,-17 -6,-8 -7,-12 -13,-22 -24,-39 -67,-68 -98,-92 -15,-11 -23,-17 -41,-25 -47,-22 -40,-20 -95,-34 -28,-7 -21,-9 -53,-13 -53,-5 -142,-8 -195,1 -18,4 -32,11 -47,13 -47,9 -14,3 -46,14l-19 6c-1,1 -3,1 -4,2 -1,0 -2,1 -3,1l-36 20c-7,4 -10,5 -19,11l-81 69c-42,46 -31,36 -66,89 -23,36 -59,138 -64,177l-11 114zm1212 -486c0,29 5,41 5,75 -1,114 -4,723 2,749 3,15 5,15 8,32l20 65c30,52 45,90 112,124l24 10c12,5 6,4 18,8 51,18 137,18 190,7 14,-2 33,-4 47,-8 1,0 17,-6 18,-7l19 -11c41,-20 56,-29 90,-60l8 -7c8,-8 5,-6 12,-13l14 -16c14,-18 8,-25 34,-27 0,34 12,110 5,125 22,1 20,5 45,5l120 0c30,0 37,-5 65,-5l0 -1036c0,-16 -15,-20 -30,-20l-200 0c-25,0 -31,8 -31,34 0,24 1,48 1,71l-1 631c-2,14 -7,20 -16,33 -1,2 -3,5 -4,6 -22,32 -63,74 -95,90 -110,56 -220,27 -220,-119l0 -696c1,-67 28,-50 -220,-50 -18,0 -28,4 -40,10zm-3461 -361l0 0zm0 0l20 0 217 -515c0,-1 1,-2 1,-3l5 -15c5,-14 8,-18 14,-32 4,-11 7,-24 12,-37 6,-13 10,-17 15,-31l207 -549c5,-17 11,-22 16,-34 5,-12 5,-25 8,-37l186 -505c12,-45 33,-100 50,-166l33 -157c8,-50 19,-122 8,-172l-15 0c-1,18 -5,24 -10,36 -7,18 -6,17 -12,37 -18,67 -95,245 -123,313 -5,13 -8,22 -14,36 -11,24 -18,41 -29,66l-45 100c-1,1 -1,3 -2,4l-2 7c-1,1 -1,3 -1,4 -1,1 -1,2 -2,3 0,2 -1,3 -2,4 0,1 -1,2 -1,3l-189 433c-2,5 -4,10 -7,17l-127 284c-12,42 -35,80 -50,121l-128 287c-7,14 -2,2 -7,18 -13,46 -165,376 -166,420 23,2 9,-5 20,10l-30 0c1,50 19,6 40,35l-14 0c-17,-2 -6,-3 -26,-5 -7,31 -24,63 -39,91l-59 81c-1,1 -2,2 -2,3l-32 38c-34,41 -24,35 -9,93 8,27 11,40 11,75 -1,131 -22,100 -25,140l27 9c13,8 -17,3 13,6 24,-49 1,-41 69,-102 25,-23 49,-48 81,-64l50 -24c0,-199 56,-243 60,-291l10 -2c8,-3 1,5 10,-8 -4,-18 -5,-10 -15,-25zm1808 541l-20 -105c-1,-24 -4,-26 -5,-50 -1,-44 -16,-33 -45,-33l-155 -2c-15,0 -30,4 -30,20l0 1021c0,20 33,20 60,20l135 0c31,0 37,-5 65,-5l0 -545c0,-39 25,-110 41,-145l74 -102 60 -29c25,-9 51,-5 81,-5 36,0 42,8 70,10 0,-21 6,-45 8,-61 4,-25 8,-41 12,-64l20 -125c-46,-24 -156,-19 -212,8 -60,29 -108,80 -138,138 0,0 -4,10 -4,10 -8,18 -15,24 -17,44zm-2253 666l5 0 -4 -6 -1 6z"/>
 </g>
</svg>
